<svg width="170" height="24" viewBox="0 0 170 24" fill="none" xmlns="http://www.w3.org/2000/svg">
<g clip-path="url(#clip0_15_436)">
<path d="M43.8695 6.9183C44.1764 6.96553 44.3653 7.1308 44.3653 7.50858V9.79886C44.3653 10.1058 44.2 10.2711 43.8695 10.2711H39.1473C36.4792 10.2711 36.0778 11.1683 36.0778 14.8044C36.0778 18.4169 36.4792 19.3378 39.1473 19.3378H43.8695C44.1764 19.3378 44.3653 19.4794 44.3653 19.7627V22.0766C44.3653 22.4308 44.2 22.5725 43.8695 22.6197C42.3111 22.9739 40.2334 23.0211 39.1473 23.0211C32.9848 23.0211 31.8042 21.3683 31.8042 14.7808C31.8042 8.14608 32.9848 6.54053 39.1473 6.54053C40.2334 6.54053 42.3111 6.58775 43.8695 6.9183Z" fill="white"/>
<path d="M59.5 11.5225V21.5336C59.5 22.0059 59.382 22.2656 58.8625 22.4309C56.832 22.9031 54.282 23.0447 52.2986 23.0447C47.9542 23.0447 45.6639 22.5725 45.6167 18.0392C45.6639 14.1434 47.6945 13.2934 51.5431 13.2934H55.2264V12.2545C55.2264 10.8614 54.3528 10.2475 52.5111 10.2475H47.2695C46.9625 10.2475 46.8681 10.1531 46.8681 9.82252V7.46141C46.8681 7.10724 46.9861 7.06002 47.2695 6.98919C49.0403 6.63502 50.7167 6.56419 52.5111 6.56419C58.225 6.54058 59.5 8.38224 59.5 11.5225ZM51.8973 16.0559C50.3861 16.0559 49.8667 16.5517 49.8667 17.8031C49.8667 19.1961 50.5042 19.5739 52.3223 19.5739C52.9125 19.5739 54.3764 19.5267 55.2264 19.2906V16.0559H51.8973Z" fill="white"/>
<path d="M71.3056 6.84747C71.6125 6.94192 71.7778 7.05997 71.7778 7.43775V9.79886C71.7778 10.0822 71.6125 10.2239 71.2819 10.2239H68.5667C67.0556 10.2239 66.5361 10.46 66.5361 11.6878V22.4308C66.5361 22.7378 66.3944 22.903 66.1111 22.903H62.6639C62.3806 22.903 62.2389 22.7614 62.2389 22.4308V10.6253C62.2389 6.98914 64.8361 6.54053 67.4806 6.54053C68.2833 6.54053 70.2903 6.63497 71.3056 6.84747Z" fill="white"/>
<path d="M86.8417 0.496267C87.1486 0.496267 87.2667 0.637934 87.2667 0.96849V21.7699C87.2667 22.1949 87.0306 22.431 86.6528 22.5018C84.2917 22.8796 82.2848 23.0449 80.2778 23.0449C74.1625 23.0449 72.7931 21.3449 72.7931 14.8282C72.7931 8.40599 74.1625 6.56432 79.4278 6.56432C80.75 6.56432 81.907 6.61155 82.9931 6.7296V0.944879C82.9931 0.637934 83.1111 0.472656 83.4181 0.472656H86.8417V0.496267ZM80.3959 10.2713C77.4681 10.2713 77.0903 11.0504 77.0903 14.781C77.0903 18.2046 77.3264 19.3143 80.207 19.3143C80.8917 19.3143 82.1195 19.2671 82.9931 19.1018V10.2713H80.3959Z" fill="white"/>
<path d="M101.717 6.9183C102.024 6.96553 102.212 7.1308 102.212 7.50858V9.79886C102.212 10.1058 102.047 10.2711 101.717 10.2711H96.9944C94.3264 10.2711 93.925 11.1683 93.925 14.8044C93.925 18.4169 94.3264 19.3378 96.9944 19.3378H101.717C102.024 19.3378 102.212 19.4794 102.212 19.7627V22.0766C102.212 22.4308 102.047 22.5725 101.717 22.6197C100.158 22.9739 98.0805 23.0211 96.9944 23.0211C90.8319 23.0211 89.6514 21.3683 89.6514 14.7808C89.6514 8.14608 90.8319 6.54053 96.9944 6.54053C98.0569 6.54053 100.158 6.58775 101.717 6.9183Z" fill="white"/>
<path d="M113.664 6.84747C113.971 6.94192 114.136 7.05997 114.136 7.43775V9.79886C114.136 10.0822 113.971 10.2239 113.64 10.2239H110.925C109.414 10.2239 108.895 10.46 108.895 11.6878V22.4308C108.895 22.7378 108.753 22.903 108.47 22.903H105.022C104.739 22.903 104.597 22.7614 104.597 22.4308V10.6253C104.597 6.98914 107.195 6.54053 109.839 6.54053C110.642 6.54053 112.649 6.63497 113.664 6.84747Z" fill="white"/>
<path d="M128.232 2.19598C128.515 2.10153 128.704 2.31403 128.704 2.62098V6.75292H131.372C131.679 6.75292 131.868 6.89459 131.868 7.17792V9.49181C131.868 9.77515 131.703 9.91681 131.372 9.91681H128.704V17.8265C128.704 19.0779 129.129 19.2904 130.404 19.2904H131.585C131.939 19.2904 132.081 19.4085 132.081 19.7154V22.171C132.081 22.5251 131.939 22.6668 131.608 22.714C130.593 22.9265 129.79 22.9738 129.153 22.9738C126.674 22.9738 124.407 22.8793 124.407 19.2432V9.94042H122.707C122.4 9.94042 122.235 9.79876 122.235 9.51542V7.20153C122.235 6.9182 122.376 6.77653 122.707 6.77653H124.407V3.56542C124.407 3.28209 124.525 3.16403 124.808 3.0932L128.232 2.19598Z" fill="white"/>
<path d="M119.779 6.68213C120.062 6.68213 120.204 6.8238 120.204 7.10713V22.4307C120.204 22.7377 120.062 22.903 119.779 22.903H116.356C116.072 22.903 115.931 22.7613 115.931 22.4307V7.10713C115.931 6.8238 116.072 6.68213 116.356 6.68213H119.779Z" fill="white"/>
<path d="M120.606 2.55021C120.606 4.0141 119.708 4.88771 118.126 4.88771C116.497 4.88771 115.576 4.0141 115.576 2.55021C115.576 1.08632 116.497 0.236319 118.126 0.236319C119.708 0.212708 120.606 1.06271 120.606 2.55021Z" fill="white"/>
<path d="M137.96 6.68213C138.243 6.68213 138.385 6.8238 138.385 7.10713V22.4307C138.385 22.7377 138.243 22.903 137.96 22.903H134.536C134.253 22.903 134.111 22.7613 134.111 22.4307V7.10713C134.111 6.8238 134.253 6.68213 134.536 6.68213H137.96Z" fill="white"/>
<path d="M138.763 2.55021C138.763 4.0141 137.865 4.88771 136.283 4.88771C134.654 4.88771 133.733 4.0141 133.733 2.55021C133.733 1.08632 134.654 0.236319 136.283 0.236319C137.865 0.212708 138.763 1.06271 138.763 2.55021ZM138.763 2.55021C138.763 4.0141 137.865 4.88771 136.283 4.88771C134.654 4.88771 133.733 4.0141 133.733 2.55021C133.733 1.08632 134.654 0.236319 136.283 0.236319C137.865 0.212708 138.763 1.06271 138.763 2.55021Z" fill="white"/>
<path d="M153.142 6.9183C153.449 6.96553 153.638 7.1308 153.638 7.50858V9.79886C153.638 10.1058 153.472 10.2711 153.142 10.2711H148.419C145.751 10.2711 145.35 11.1683 145.35 14.8044C145.35 18.4169 145.751 19.3378 148.419 19.3378H153.142C153.449 19.3378 153.638 19.4794 153.638 19.7627V22.0766C153.638 22.4308 153.472 22.5725 153.142 22.6197C151.583 22.9739 149.506 23.0211 148.419 23.0211C142.257 23.0211 141.076 21.3683 141.076 14.7808C141.076 8.14608 142.257 6.54053 148.419 6.54053C149.506 6.54053 151.583 6.58775 153.142 6.9183Z" fill="white"/>
<path d="M166.836 6.91832C167.19 7.01277 167.308 7.13082 167.308 7.39055V9.58638C167.308 9.89332 167.19 10.0586 166.813 10.0586H161.594C160.461 10.0586 159.894 10.3655 159.894 11.0975V11.3808C159.894 11.9239 160.249 12.3253 161.288 12.703L164.994 14.0017C167.45 14.8753 168.04 16.3628 168.04 18.3461V18.8183C168.04 22.1711 165.561 23.0447 161.878 23.0447C159.351 23.0447 157.274 22.903 155.881 22.7614C155.503 22.7614 155.385 22.6433 155.385 22.3364V19.9989C155.385 19.6919 155.526 19.5739 155.881 19.5739H161.807C163.342 19.5739 163.814 19.3614 163.814 18.5822V18.3225C163.814 17.7794 163.507 17.4017 162.232 16.953L158.667 15.678C156.376 14.8989 155.715 13.128 155.715 11.2864V10.7433C155.715 7.65027 158.124 6.58777 162.279 6.58777C163.507 6.54055 165.16 6.63499 166.836 6.91832Z" fill="white"/>
<path d="M26.2319 3.02266C26.2319 1.6296 24.8861 0.472656 23.2569 0.472656H21.6514V23.0213H26.2319V3.02266Z" fill="white"/>
<path d="M17.8972 0.496094H2.975C1.34583 0.496094 0 1.62943 0 3.02248L17.8972 19.6447V0.496094Z" fill="white"/>
<path d="M0 6.65869V23.0212H17.6139L0 6.65869Z" fill="white"/>
</g>
<defs>
<clipPath id="clip0_15_436">
<rect width="170" height="23.0681" fill="white"/>
</clipPath>
</defs>
</svg>
