<svg width="175" height="24" viewBox="0 0 175 24" fill="none" xmlns="http://www.w3.org/2000/svg">
<g clip-path="url(#clip0_7_216)">
<path d="M45.1598 7.24875C45.4757 7.29736 45.6702 7.4675 45.6702 7.85639V10.214C45.6702 10.53 45.5 10.7001 45.1598 10.7001H40.2987C37.5521 10.7001 37.1389 11.6238 37.1389 15.3668C37.1389 19.0856 37.5521 20.0335 40.2987 20.0335H45.1598C45.4757 20.0335 45.6702 20.1793 45.6702 20.471V22.8529C45.6702 23.2175 45.5 23.3633 45.1598 23.4119C43.5556 23.7765 41.4167 23.8251 40.2987 23.8251C33.9549 23.8251 32.7396 22.1238 32.7396 15.3425C32.7396 8.51264 33.9549 6.85986 40.2987 6.85986C41.4167 6.85986 43.5556 6.90847 45.1598 7.24875Z" fill="#464646"/>
<path d="M61.25 11.9882V22.2937C61.25 22.7799 61.1285 23.0472 60.5938 23.2174C58.5035 23.7035 55.8785 23.8493 53.8368 23.8493C49.3646 23.8493 47.007 23.3632 46.9584 18.6965C47.007 14.6861 49.0973 13.8111 53.0591 13.8111H56.8507V12.7417C56.8507 11.3076 55.9514 10.6757 54.0556 10.6757H48.6598C48.3438 10.6757 48.2466 10.5785 48.2466 10.2382V7.80763C48.2466 7.44305 48.3681 7.39444 48.6598 7.32152C50.4827 6.95694 52.2084 6.88402 54.0556 6.88402C59.9375 6.85971 61.25 8.75555 61.25 11.9882ZM53.4237 16.6549C51.8681 16.6549 51.3334 17.1653 51.3334 18.4535C51.3334 19.8875 51.9896 20.2764 53.8612 20.2764C54.4688 20.2764 55.9757 20.2278 56.8507 19.9847V16.6549H53.4237Z" fill="#464646"/>
<path d="M73.4028 7.17584C73.7188 7.27306 73.8889 7.39459 73.8889 7.78347V10.214C73.8889 10.5057 73.7188 10.6515 73.3785 10.6515H70.5833C69.0278 10.6515 68.4931 10.8946 68.4931 12.1585V23.2175C68.4931 23.5335 68.3472 23.7036 68.0556 23.7036H64.507C64.2153 23.7036 64.0695 23.5578 64.0695 23.2175V11.0647C64.0695 7.32167 66.7431 6.85986 69.4653 6.85986C70.2917 6.85986 72.3577 6.95709 73.4028 7.17584Z" fill="#464646"/>
<path d="M89.3959 0.637587C89.7119 0.637587 89.8334 0.78342 89.8334 1.1237V22.5369C89.8334 22.9744 89.5903 23.2175 89.2014 23.2904C86.7709 23.6793 84.7049 23.8494 82.6389 23.8494C76.3438 23.8494 74.9341 22.0994 74.9341 15.3911C74.9341 8.77995 76.3438 6.88412 81.7639 6.88412C83.1251 6.88412 84.316 6.93273 85.4341 7.05425V1.09939C85.4341 0.78342 85.5556 0.613281 85.8716 0.613281H89.3959V0.637587ZM82.7605 10.7001C79.7466 10.7001 79.3577 11.5022 79.3577 15.3424C79.3577 18.8668 79.6008 20.0091 82.566 20.0091C83.2709 20.0091 84.5348 19.9605 85.4341 19.7904V10.7001H82.7605Z" fill="#464646"/>
<path d="M104.708 7.24875C105.024 7.29736 105.219 7.4675 105.219 7.85639V10.214C105.219 10.53 105.049 10.7001 104.708 10.7001H99.8472C97.1007 10.7001 96.6875 11.6238 96.6875 15.3668C96.6875 19.0856 97.1007 20.0335 99.8472 20.0335H104.708C105.024 20.0335 105.219 20.1793 105.219 20.471V22.8529C105.219 23.2175 105.049 23.3633 104.708 23.4119C103.104 23.7765 100.965 23.8251 99.8472 23.8251C93.5035 23.8251 92.2882 22.1238 92.2882 15.3425C92.2882 8.51264 93.5035 6.85986 99.8472 6.85986C100.941 6.85986 103.104 6.90847 104.708 7.24875Z" fill="#464646"/>
<path d="M117.007 7.17584C117.323 7.27306 117.493 7.39459 117.493 7.78347V10.214C117.493 10.5057 117.323 10.6515 116.983 10.6515H114.187C112.632 10.6515 112.097 10.8946 112.097 12.1585V23.2175C112.097 23.5335 111.951 23.7036 111.66 23.7036H108.111C107.819 23.7036 107.674 23.5578 107.674 23.2175V11.0647C107.674 7.32167 110.347 6.85986 113.069 6.85986C113.896 6.85986 115.962 6.95709 117.007 7.17584Z" fill="#464646"/>
<path d="M132.004 2.38756C132.295 2.29034 132.49 2.50909 132.49 2.82506V7.07853H135.236C135.552 7.07853 135.747 7.22437 135.747 7.51603V9.89798C135.747 10.1896 135.576 10.3355 135.236 10.3355H132.49V18.4778C132.49 19.766 132.927 19.9848 134.24 19.9848H135.455C135.82 19.9848 135.965 20.1063 135.965 20.4223V22.9501C135.965 23.3146 135.82 23.4605 135.479 23.5091C134.434 23.7278 133.608 23.7765 132.951 23.7765C130.399 23.7765 128.066 23.6792 128.066 19.9362V10.3598H126.316C126 10.3598 125.83 10.214 125.83 9.92228V7.54034C125.83 7.24867 125.976 7.10284 126.316 7.10284H128.066V3.79728C128.066 3.50562 128.188 3.38409 128.479 3.31117L132.004 2.38756Z" fill="#464646"/>
<path d="M123.302 7.00537C123.594 7.00537 123.74 7.1512 123.74 7.44287V23.2172C123.74 23.5331 123.594 23.7033 123.302 23.7033H119.778C119.486 23.7033 119.34 23.5575 119.34 23.2172V7.44287C119.34 7.1512 119.486 7.00537 119.778 7.00537H123.302Z" fill="#464646"/>
<path d="M124.153 2.75207C124.153 4.25901 123.229 5.15832 121.601 5.15832C119.924 5.15832 118.976 4.25901 118.976 2.75207C118.976 1.24512 119.924 0.370122 121.601 0.370122C123.229 0.345817 124.153 1.22082 124.153 2.75207Z" fill="#464646"/>
<path d="M142.017 7.00537C142.309 7.00537 142.455 7.1512 142.455 7.44287V23.2172C142.455 23.5331 142.309 23.7033 142.017 23.7033H138.493C138.201 23.7033 138.056 23.5575 138.056 23.2172V7.44287C138.056 7.1512 138.201 7.00537 138.493 7.00537H142.017Z" fill="#464646"/>
<path d="M142.844 2.75207C142.844 4.25901 141.92 5.15832 140.292 5.15832C138.615 5.15832 137.667 4.25901 137.667 2.75207C137.667 1.24512 138.615 0.370122 140.292 0.370122C141.92 0.345817 142.844 1.22082 142.844 2.75207ZM142.844 2.75207C142.844 4.25901 141.92 5.15832 140.292 5.15832C138.615 5.15832 137.667 4.25901 137.667 2.75207C137.667 1.24512 138.615 0.370122 140.292 0.370122C141.92 0.345817 142.844 1.22082 142.844 2.75207Z" fill="#464646"/>
<path d="M157.646 7.24875C157.962 7.29736 158.156 7.4675 158.156 7.85639V10.214C158.156 10.53 157.986 10.7001 157.646 10.7001H152.785C150.038 10.7001 149.625 11.6238 149.625 15.3668C149.625 19.0856 150.038 20.0335 152.785 20.0335H157.646C157.962 20.0335 158.156 20.1793 158.156 20.471V22.8529C158.156 23.2175 157.986 23.3633 157.646 23.4119C156.042 23.7765 153.903 23.8251 152.785 23.8251C146.441 23.8251 145.226 22.1238 145.226 15.3425C145.226 8.51264 146.441 6.85986 152.785 6.85986C153.903 6.85986 156.042 6.90847 157.646 7.24875Z" fill="#464646"/>
<path d="M171.743 7.2487C172.108 7.34592 172.229 7.46745 172.229 7.73481V9.99523C172.229 10.3112 172.108 10.4813 171.719 10.4813H166.347C165.181 10.4813 164.597 10.7973 164.597 11.5508V11.8424C164.597 12.4015 164.962 12.8147 166.031 13.2036L169.847 14.5404C172.375 15.4397 172.983 16.9709 172.983 19.0126V19.4987C172.983 22.9501 170.431 23.8494 166.639 23.8494C164.038 23.8494 161.899 23.7036 160.465 23.5577C160.076 23.5577 159.955 23.4362 159.955 23.1202V20.714C159.955 20.398 160.101 20.2765 160.465 20.2765H166.566C168.146 20.2765 168.632 20.0577 168.632 19.2556V18.9883C168.632 18.4293 168.316 18.0404 167.003 17.5786L163.333 16.2661C160.976 15.464 160.295 13.6411 160.295 11.7452V11.1862C160.295 8.00217 162.774 6.90842 167.052 6.90842C168.316 6.85981 170.017 6.95703 171.743 7.2487Z" fill="#464646"/>
<path d="M27.0035 3.23828C27.0035 1.80425 25.6181 0.613281 23.941 0.613281H22.2882V23.8251H27.0035V3.23828Z" fill="#04679A"/>
<path d="M18.4236 0.637695H3.0625C1.38542 0.637695 0 1.80436 0 3.23839L18.4236 20.3495V0.637695Z" fill="#04679A"/>
<path d="M0 6.98145V23.8252H18.1319L0 6.98145Z" fill="#464646"/>
</g>
<defs>
<clipPath id="clip0_7_216">
<rect width="175" height="23.7465" fill="white" transform="translate(0 0.126953)"/>
</clipPath>
</defs>
</svg>
