<svg width="40" height="18" viewBox="0 0 40 18" fill="none" xmlns="http://www.w3.org/2000/svg">
<path fill-rule="evenodd" clip-rule="evenodd" d="M40 4.11913H24.9414C24.9546 3.0649 25.8133 2.21436 26.8707 2.21436H38.0707C39.1281 2.21436 39.9868 3.0649 40 4.11913ZM40.0001 6.26198V4.1328L40.0001 4.14377V10.2849C40.0001 11.3505 39.1363 12.2144 38.0707 12.2144H26.8707C25.8051 12.2144 24.9413 11.3505 24.9413 10.2849V6.26198H40.0001ZM26.8236 12.2144V15.7858L30.353 12.2144H26.8236Z" fill="#5DC07B"/>
<path fill-rule="evenodd" clip-rule="evenodd" d="M0.0453566 2.45224C0.287564 1.09865 1.47086 0.0712891 2.89412 0.0712891H17.1059C18.5291 0.0712891 19.7124 1.09865 19.9546 2.45224H0.0453566ZM0 5.30938H20V10.2724C20 11.8708 18.7043 13.1665 17.1059 13.1665L17.412 13.1665V17.9284L12.7061 13.1665L2.89412 13.1665C1.29574 13.1665 0 11.8708 0 10.2724V5.30938Z" fill="#42BEBD"/>
</svg>
