<svg width="24" height="24" viewBox="0 0 24 24" fill="none" xmlns="http://www.w3.org/2000/svg">
<path fill-rule="evenodd" clip-rule="evenodd" d="M20.7188 12C20.7188 16.8152 16.8152 20.7188 12 20.7188C7.18475 20.7188 3.28125 16.8152 3.28125 12C3.28125 7.18475 7.18475 3.28125 12 3.28125C16.8152 3.28125 20.7188 7.18475 20.7188 12ZM10.9915 16.6165L17.4603 10.1478C17.6799 9.9281 17.6799 9.57193 17.4603 9.35228L16.6648 8.5568C16.4451 8.33711 16.089 8.33711 15.8693 8.5568L10.5938 13.8323L8.13074 11.3693C7.91108 11.1496 7.55491 11.1496 7.33522 11.3693L6.53974 12.1647C6.32009 12.3844 6.32009 12.7406 6.53974 12.9602L10.196 16.6165C10.4157 16.8362 10.7718 16.8362 10.9915 16.6165V16.6165Z" fill="#1DC457"/>
</svg>
