<svg width="25" height="24" viewBox="0 0 25 24" fill="none" xmlns="http://www.w3.org/2000/svg">
<path fill-rule="evenodd" clip-rule="evenodd" d="M12.5 17.4844C11.9551 17.4844 11.5156 17.0449 11.5156 16.5V14.25C11.5156 13.7051 11.9551 13.2656 12.5 13.2656C13.0449 13.2656 13.4844 13.7051 13.4844 14.25V16.5C13.4844 17.0449 13.0449 17.4844 12.5 17.4844ZM20.375 11.4375V19.3125C20.375 20.2441 19.6191 21 18.6875 21H6.3125C5.38086 21 4.625 20.2441 4.625 19.3125V11.4375C4.625 10.5059 5.38086 9.75 6.3125 9.75H7.43749V8.06251C7.43749 5.26759 9.71562 2.99299 12.514 3.00002C15.3125 3.00705 17.5625 5.31329 17.5625 8.11173V9.75H18.6875C19.6191 9.75 20.375 10.5059 20.375 11.4375ZM9.12499 9.75001H15.875V8.06251C15.875 6.20275 14.3597 4.68752 12.5 4.68752C10.6402 4.68752 9.12499 6.20275 9.12499 8.06251V9.75001ZM18.6875 11.4375H6.3125V19.3125H18.6875V11.4375Z" fill="white"/>
</svg>
