<svg width="20" height="20" viewBox="0 0 20 20" fill="none" xmlns="http://www.w3.org/2000/svg">
<path fill-rule="evenodd" clip-rule="evenodd" d="M15.0332 10.2488L10.7324 14.5847C10.5947 14.7224 10.3721 14.7224 10.2344 14.5847L9.6543 14.0046C9.5166 13.8669 9.5166 13.6443 9.6543 13.5066L13.126 9.99976L9.6543 6.49292C9.5166 6.35522 9.5166 6.13257 9.6543 5.99487L10.2344 5.41479C10.3721 5.2771 10.5947 5.2771 10.7324 5.41479L15.0332 9.75073C15.1709 9.88843 15.1709 10.1111 15.0332 10.2488ZM10.3457 9.75073L6.04492 5.41479C5.90723 5.2771 5.68457 5.2771 5.54687 5.41479L4.9668 5.99487C4.8291 6.13257 4.8291 6.35522 4.9668 6.49292L8.43848 9.99976L4.9668 13.5066C4.8291 13.6443 4.8291 13.8669 4.9668 14.0046L5.54687 14.5847C5.68457 14.7224 5.90723 14.7224 6.04492 14.5847L10.3457 10.2488C10.4834 10.1111 10.4834 9.88843 10.3457 9.75073Z" fill="white"/>
</svg>
